<?xml version="1.0" encoding="UTF-8"?>
<svg id="Camada_1" xmlns="http://www.w3.org/2000/svg" version="1.1" viewBox="0 0 192 160">
  <!-- Generator: Adobe Illustrator 30.0.0, SVG Export Plug-In . SVG Version: 2.1.1 Build 123)  -->
  <defs>
    <style>
      .st0 {
        fill: #635aff;
      }
    </style>
  </defs>
  <path class="st0" d="M36,160H10.8c-6,0-10.8-4.9-10.8-10.8v-25.2h8v25.2c0,1.6,1.3,2.8,2.8,2.8h25.2v8Z"/>
  <path class="st0" d="M156,0h25.2c6,0,10.8,4.9,10.8,10.8v25.2h-8V10.8c0-1.6-1.3-2.8-2.8-2.8h-25.2V0Z"/>
  <g>
    <path class="st0" d="M139.7,92H48c-13.3,0-24-10.7-24-24v-32h-8v32c0,17.7,14.3,32,32,32h86.9c.6,0,1.1.5,1.1,1.1v22.9h8v-27.7c0-2.4-1.9-4.3-4.3-4.3Z"/>
    <path class="st0" d="M144,76H48c-4.4,0-8-3.6-8-8v-32h-8v32c0,8.8,7.2,16,16,16h96c4.4,0,8,3.6,8,8v32h8v-32c0-8.8-7.2-16-16-16Z"/>
    <path class="st0" d="M144,60H57.1c-.6,0-1.1-.5-1.1-1.1v-22.9h-8v27.7c0,2.4,1.9,4.3,4.3,4.3h91.7c13.3,0,24,10.7,24,24v32h8v-32c0-17.7-14.3-32-32-32Z"/>
  </g>
</svg>